<?xml version="1.0" standalone="no"?>
<!DOCTYPE svg PUBLIC "-//W3C//DTD SVG 20010904//EN"
 "http://www.w3.org/TR/2001/REC-SVG-20010904/DTD/svg10.dtd">
<svg version="1.0" xmlns="http://www.w3.org/2000/svg"
 width="1024.000000pt" height="1024.000000pt" viewBox="0 0 1024.000000 1024.000000"
 preserveAspectRatio="xMidYMid meet">

<g transform="translate(0.000000,1024.000000) scale(0.100000,-0.100000)"
fill="#000000" stroke="none">
<path d="M4865 8699 c-525 -46 -1053 -203 -1491 -446 -826 -456 -1441 -1230
-1703 -2141 -192 -672 -179 -1387 41 -2082 302 -959 1009 -1757 1924 -2174
528 -241 1055 -341 1669 -315 1113 46 2173 649 2804 1594 319 477 510 1012
582 1630 20 167 17 588 -5 760 -74 588 -255 1090 -559 1553 -591 901 -1528
1478 -2612 1607 -162 19 -504 27 -650 14z m1821 -1338 c51 -23 99 -81 113
-137 8 -29 11 -341 11 -992 0 -1036 1 -1013 -57 -1083 -15 -17 -45 -40 -68
-50 -38 -18 -107 -19 -1565 -19 -1468 0 -1527 1 -1566 19 -23 10 -52 34 -66
52 -55 76 -53 26 -53 1080 l0 975 30 59 c25 50 39 63 84 87 l53 28 1522 0
c1458 0 1523 -1 1562 -19z m309 -2612 c59 -95 112 -187 118 -206 13 -41 -8
-93 -50 -120 -26 -17 -117 -18 -1914 -21 -1496 -2 -1895 0 -1925 10 -24 8 -47
26 -62 48 -37 54 -27 90 71 242 46 73 96 152 111 176 l26 42 1759 0 1758 0
108 -171z m-3385 -1169 l0 -410 -80 0 -80 0 0 410 0 410 80 0 80 0 0 -410z
m3900 0 l0 -410 -75 0 -75 0 0 36 0 36 -35 -31 c-98 -85 -273 -57 -345 55 -40
63 -54 131 -48 233 10 170 101 272 240 270 62 -1 107 -15 142 -46 15 -13 28
-23 31 -23 3 0 5 65 5 145 l0 145 80 0 80 0 0 -410z m-4355 375 c69 -18 122
-56 147 -106 20 -39 24 -129 7 -162 -17 -32 -71 -87 -86 -87 -24 0 -13 -18 15
-25 79 -20 128 -101 120 -204 -5 -67 -31 -114 -84 -150 -63 -43 -113 -51 -336
-51 l-208 0 0 400 0 400 183 0 c132 0 199 -4 242 -15z m2105 -145 l0 -160 175
0 175 0 0 160 0 161 83 -3 c45 -2 81 -6 80 -10 -2 -5 -3 -183 -3 -398 l0 -390
-80 0 -80 0 0 164 0 165 -175 -2 -175 -2 0 -162 0 -163 -80 0 -80 0 0 400 0
400 80 0 80 0 0 -160z m-538 -56 c25 -8 54 -24 64 -35 24 -27 34 -24 34 11 l0
30 81 0 81 0 -4 -322 c-4 -351 -7 -369 -65 -430 -59 -62 -200 -92 -315 -69
-80 17 -141 61 -172 123 -42 84 -39 88 52 88 76 -1 77 -1 97 -33 38 -60 145
-72 203 -22 24 20 27 31 30 101 l4 78 -36 -31 c-89 -79 -225 -68 -306 24 -67
77 -88 198 -54 313 45 151 169 221 306 174z m2148 -59 l0 -75 -40 0 c-57 0
-114 -31 -134 -74 -13 -27 -16 -67 -16 -205 l0 -171 -80 0 -80 0 0 295 0 295
81 0 81 0 -4 -50 c-1 -28 -1 -50 2 -50 3 0 15 16 27 35 27 41 85 74 131 75
l32 0 0 -75z m-2747 49 c142 -48 220 -225 173 -389 -23 -77 -98 -154 -175
-180 -80 -26 -190 -18 -260 20 -99 54 -143 138 -142 269 1 129 57 222 166 272
61 29 167 32 238 8z m2189 -17 c79 -46 88 -77 88 -310 0 -107 4 -207 10 -221
l10 -26 -85 0 -85 0 0 30 c0 36 -4 37 -33 9 -38 -36 -80 -52 -147 -56 -54 -4
-73 0 -110 19 -80 41 -112 145 -71 233 34 75 80 98 223 114 54 6 104 11 113
11 9 0 15 9 15 26 0 80 -95 107 -188 53 -23 -13 -52 -19 -98 -19 l-64 0 15 37
c22 52 51 82 110 110 45 21 61 24 150 21 88 -3 106 -7 147 -31z"/>
<path d="M3662 7150 l-22 -21 0 -898 c0 -870 1 -900 19 -922 l19 -24 1437 0
1437 0 24 28 24 28 0 884 c0 486 -3 891 -6 900 -18 46 31 45 -1487 45 -1418 0
-1423 0 -1445 -20z"/>
<path d="M4737 4689 c-17 -10 -57 -82 -71 -126 l-7 -23 465 0 c256 0 466 2
466 5 0 21 -62 135 -78 144 -28 15 -750 15 -775 0z"/>
<path d="M7139 3613 c-40 -34 -59 -79 -59 -140 0 -73 17 -118 56 -152 64 -57
162 -34 205 49 42 77 14 215 -50 253 -46 27 -113 22 -152 -10z"/>
<path d="M2892 3744 l3 -99 104 3 c117 2 145 13 156 62 9 39 -9 92 -37 109
-13 8 -64 16 -125 19 l-104 5 3 -99z"/>
<path d="M2890 3406 l0 -106 93 0 c158 0 202 24 202 111 0 37 -5 54 -23 71
-21 21 -33 23 -147 26 l-125 4 0 -106z"/>
<path d="M4636 3640 c-63 -20 -96 -76 -96 -165 0 -99 51 -155 142 -155 110 0
173 132 118 246 -12 23 -31 49 -44 57 -31 21 -84 28 -120 17z"/>
<path d="M3954 3616 c-49 -22 -76 -68 -82 -141 -6 -79 21 -142 72 -170 46 -25
127 -17 163 16 75 70 71 224 -8 282 -34 25 -105 31 -145 13z"/>
<path d="M6145 3429 c-77 -11 -109 -35 -113 -82 -4 -44 24 -67 83 -67 74 0
135 59 135 130 0 34 -1 34 -105 19z"/>
</g>
</svg>
